<?xml version="1.0" encoding="UTF-8"?>
<svg id="Layer_1" xmlns="http://www.w3.org/2000/svg" version="1.1" viewBox="0 0 111.4 107.4">
  <!-- Generator: Adobe Illustrator 29.0.0, SVG Export Plug-In . SVG Version: 2.1.0 Build 186)  -->
  <defs>
    <style>
      .st0 {
        fill: #fff;
      }

      .st1 {
        fill: #88563a;
      }
    </style>
  </defs>
  <path class="st1" d="M105.6,53.3c0,27.6-22.4,50-50,50h0c-27.6,0-50-22.4-50-50h0C5.6,25.7,28,3.3,55.6,3.3h0c27.6,0,50,22.4,50,50h0Z"/>
  <path class="st0" d="M62.8,48.7l20.2-21.6h-7.7l-15.9,17-12.2-17h-21l21.3,29.7-21.3,22.7h7.7l16.9-18.1,13,18.1h21l-22.1-30.8ZM37.1,32.6h7.3l29.6,41.3h-7.3l-29.6-41.3Z"/>
</svg>