<?xml version="1.0" encoding="UTF-8"?>
<svg id="Layer_1" xmlns="http://www.w3.org/2000/svg" version="1.1" viewBox="0 0 111.4 107.4">
  <!-- Generator: Adobe Illustrator 29.0.0, SVG Export Plug-In . SVG Version: 2.1.0 Build 186)  -->
  <defs>
    <style>
      .st0 {
        fill: #fff;
      }

      .st1 {
        fill: #88563a;
      }
    </style>
  </defs>
  <path class="st1" d="M105,53.3c0,27.6-22.4,50-50,50h0c-27.6,0-50-22.4-50-50h0C5,25.7,27.3,3.3,55,3.3h0c27.6,0,50,22.4,50,50h0Z"/>
  <path class="st0" d="M69.8,49.4l-.8,6.7c-.1,1.1-1.1,2-2.2,2h-10.8v28c-1.1.1-2.3.2-3.5.2-2.6,0-5.2-.3-7.6-.8v-27.4h-8.3c-.8,0-1.4-.6-1.4-1.4v-8.4c0-.8.6-1.4,1.4-1.4h8.3v-12.6c0-7.7,6.2-13.9,13.9-13.9h9.7c.8,0,1.4.6,1.4,1.4v8.4c0,.8-.6,1.4-1.4,1.4h-6.9c-3.1,0-5.6,2.5-5.6,5.6v9.8h11.7c1.3,0,2.4,1.2,2.2,2.5Z"/>
</svg>