<?xml version="1.0" encoding="UTF-8"?>
<svg id="Layer_1" xmlns="http://www.w3.org/2000/svg" version="1.1" viewBox="0 0 111.4 107.4">
  <!-- Generator: Adobe Illustrator 29.0.0, SVG Export Plug-In . SVG Version: 2.1.0 Build 186)  -->
  <defs>
    <style>
      .st0 {
        fill: #865539;
      }

      .st1 {
        fill: #fff;
      }
    </style>
  </defs>
  <path class="st0" d="M105.5,53.7c0,27.6-22.4,50-50,50h0c-27.6,0-50-22.4-50-50h0C5.5,26.1,27.9,3.7,55.5,3.7h0c27.6,0,50,22.4,50,50h0Z"/>
  <path class="st1" d="M68.7,87.3c0-1.5,0-6.3,0-12.4s-1.4-7-3-8.4c9.9-1.1,20.3-4.9,20.3-22.3s-1.7-9-4.6-12.1c.5-1.1,2-5.7-.4-11.9,0,0-3.7-1.2-12.2,4.6-3.5-1-7.3-1.5-11.1-1.5-3.8,0-7.6.5-11.1,1.5-8.5-5.8-12.2-4.6-12.2-4.6-2.4,6.2-.9,10.8-.4,11.9-2.8,3.2-4.6,7.2-4.6,12.1,0,17.3,10.4,21.2,20.2,22.3-1.3,1.1-2.4,3.1-2.8,6-2.5,1.2-9,3.1-12.9-3.8,0,0-2.3-4.3-6.8-4.6,0,0-4.3,0-.3,2.7,0,0,2.9,1.4,4.9,6.6,0,0,2.6,8.1,14.9,5.3,0,3.8,0,7.3,0,8.4"/>
  <path class="st0" d="M45.6,75.5c-.5,0-1-.1-1.1-.5,0-.4.3-.7.8-.8.5,0,1,.1,1.1.5,0,.4-.3.7-.8.8Z"/>
  <path class="st0" d="M43,75.2c0,.4-.4.7-.9.7-.5,0-1-.3-1-.7,0-.4.4-.7.9-.7.5,0,1,.3,1,.7Z"/>
  <path class="st0" d="M39.4,74.9c-.1.4-.6.5-1.1.4-.5-.2-.8-.6-.7-.9.1-.4.6-.5,1.1-.4.5.2.8.6.7.9Z"/>
  <path class="st0" d="M36.1,73.5c-.2.3-.8.2-1.1-.2-.4-.4-.5-.9-.3-1.2.2-.3.8-.2,1.1.2.4.4.5.9.2,1.2Z"/>
  <path class="st0" d="M33.7,71c-.3.2-.7,0-1-.4-.3-.4-.3-.9,0-1.1.3-.2.7,0,1,.4.3.4.3.9,0,1.1Z"/>
  <path class="st0" d="M31.9,68.4c-.2.2-.6.1-.9-.2-.3-.3-.3-.7-.1-.9.2-.2.6-.1.9.2.3.3.3.7.1.9Z"/>
  <path class="st0" d="M30.1,66.3c0,.2-.4.3-.8.1-.3-.1-.5-.5-.4-.7,0-.2.4-.3.8-.1.3.1.5.5.4.7Z"/>
</svg>