<?xml version="1.0" encoding="UTF-8"?>
<svg id="Layer_1" xmlns="http://www.w3.org/2000/svg" version="1.1" viewBox="0 0 111.4 107.4">
  <!-- Generator: Adobe Illustrator 29.0.0, SVG Export Plug-In . SVG Version: 2.1.0 Build 186)  -->
  <defs>
    <style>
      .st0 {
        fill: #865539;
      }

      .st1 {
        fill: #fff;
      }
    </style>
  </defs>
  <path class="st0" d="M103.3,52.8c0,27.6-22.4,50-50,50h0c-27.6,0-50-22.4-50-50h0C3.3,25.2,25.7,2.8,53.3,2.8h0c27.6,0,50,22.4,50,50h0Z"/>
  <path class="st1" d="M66.9,26.6h-27.1c-7,0-12.7,5.7-12.7,12.7v27.1c0,7,5.7,12.7,12.7,12.7h27.1c7,0,12.7-5.7,12.7-12.7v-27.1c0-7-5.7-12.7-12.7-12.7ZM75,65.5c0,5-4.1,9-9,9h-25.3c-5,0-9-4.1-9-9v-25.3c0-5,4.1-9,9-9h25.3c5,0,9,4.1,9,9v25.3Z"/>
  <path class="st1" d="M53.3,39.3c-7.5,0-13.6,6.1-13.6,13.6s6.1,13.6,13.6,13.6,13.6-6.1,13.6-13.6-6.1-13.6-13.6-13.6ZM53.3,61.9c-5,0-9-4.1-9-9s4.1-9,9-9,9,4.1,9,9-4.1,9-9,9Z"/>
  <circle class="st1" cx="67.8" cy="38.4" r="2.7"/>
</svg>