<?xml version="1.0" encoding="UTF-8"?>
<svg id="Layer_1" xmlns="http://www.w3.org/2000/svg" version="1.1" viewBox="0 0 111.4 107.4">
  <!-- Generator: Adobe Illustrator 29.0.0, SVG Export Plug-In . SVG Version: 2.1.0 Build 186)  -->
  <defs>
    <style>
      .st0 {
        fill: #865539;
      }

      .st1 {
        fill: #fff;
      }
    </style>
  </defs>
  <path class="st0" d="M105.3,52.8c0,27.6-22.4,50-50,50h0c-27.6,0-50-22.4-50-50h0C5.3,25.2,27.7,2.8,55.3,2.8h0c27.6,0,50,22.4,50,50h0Z"/>
  <g>
    <circle class="st1" cx="37.6" cy="33" r="6.4"/>
    <rect class="st1" x="32.2" y="43.7" width="10.7" height="32.2" rx="1.9" ry="1.9"/>
    <path class="st1" d="M79.5,55.6v18.2c0,1.2-1,2.1-2.1,2.1h-6.4c-1.2,0-2.1-1-2.1-2.1v-15c0-3-2.4-5.4-5.4-5.4s-5.4,2.4-5.4,5.4v15c0,1.2-1,2.1-2.1,2.1h-6.4c-1.2,0-2.1-1-2.1-2.1v-27.9c0-1.2,1-2.1,2.1-2.1h6.4c1.2,0,2.1,1,2.1,2.1v1.4c2.1-2.8,5.7-4.6,9.7-4.6,5.9,0,11.8,4.3,11.8,12.9Z"/>
  </g>
</svg>