<?xml version="1.0" encoding="UTF-8"?>
<svg xmlns="http://www.w3.org/2000/svg" version="1.1" viewBox="0 0 122 144">
  <defs>
    <style>
      .cls-1 {
        fill: #88553a;
      }

      .cls-2 {
        fill: #fbdec0;
      }

      .cls-3 {
        fill: #fff;
      }

      .cls-4 {
        fill: #c58b59;
      }
    </style>
  </defs>
  <!-- Generator: Adobe Illustrator 28.7.1, SVG Export Plug-In . SVG Version: 1.2.0 Build 142)  -->
  <g>
    <g id="Layer_1">
      <path class="cls-2" d="M20.6,57.6c-6.4,3.1-13.4,12.8-12.2,17.3s2.3,7.2,8.3,8.9c6,1.7,9.5,1.4,10.2,4.8.8,3.5,1.5,11.5,2.8,15.2s3.9,7.3,9.1,8.9c5.3,1.5,23.9,7,30.1-6.3,6.2-13.3,2.3-25.2-4.7-31.5-7-6.3-15-7.7-17-13.3-2-5.6.7-11.9-2.8-15.2-3.5-3.4-6.3-3.8-6.3-3.8,0,0,2.6,8.3-3.8,10.5-6.4,2.2-9.4,2.2-13.9,4.4Z"/>
      <path class="cls-2" d="M106.2,60.3s14.3-19,2.3-36.5c-12-17.5-34.9-9.8-34.9-9.8v-5.2s-27.5,6.9-23.6,39c2.8,17.2,10.6,17.5,15.8,28.9,5.2,11.4,12,22.6-1.3,34.2-13.3,11.6-35.8-5.2-35.8-5.2,0,0-1.8,11.1,10.2,20.8,12,9.7,28.9,11,43.7,2,14.8-9,18.7-28.7,17.7-37.8-1-9.1-4.3-13.3-4.3-13.3l-2.2,3.5s-25-26.1-5.2-34.7c8.3-3,16.5,4.8,17.7,14.2Z"/>
      <path class="cls-4" d="M68.4,133.6s16.6-1,24-15.2c7.4-14.2,9.2-26.3,4.4-39.5l-3.2,3.2s-15.9-17.8-13-25.9c2.9-8.1,5.3-11.2,10.3-11.9,5-.7,10.4,5.8,11.1,8,.7,2.2,4.8,6.8,4.8,6.8,0,0,7.3-19.3-9.8-27.2-13.1-6.1-21,5.6-22.8,8.1,0,0-1.3-1.2-.9-5.5,0,0-11.8,8.4-2.3,28.9,5.6,12.2,17.9,24.5,16.1,41.7l-4.2-5.5s1.9,18.6-17.5,25.9c-12.1,4.6-33.6-5.6-35.3-17.8,0,0-.4,15.6,15.5,23.2,15.8,7.5,22.6,2.8,22.6,2.8Z"/>
      <path class="cls-3" d="M107.4,55.5s6.7-32.3-29.1-26.8c0,0,0-2.8,2.1-4.4,0,0-9.1.5-14.6,10.6l.5-6.2s-13.7,11.5-6.4,35.8c0,0-1.6,1.7-1.9.9-.3-.8-11.7-14.9-9.2-26,2.5-11.1,7.3-21.1,15.1-25.2,7.7-4.1,11-4.7,11-4.7l.4,4.3s20.5-8.8,29.9,5.1c9.4,13.9,7.5,29.1,7.2,29.7s-5,6.8-5,6.8Z"/>
      <path class="cls-3" d="M13.1,80.2c6.1.9,16.1-3.7,23.7,4.7,0,0-3.5-.9-4.7-.4,0,0,5.2,2,7.6,9.8,2.4,7.9,9.3,11.3,13.9,10.1,0,0-2.5,3.9-5.4,3.4,0,0,16.9,7,24.5-8.9,0,0-4.1,14.8-14.5,16.4-10.4,1.6-25.2-1.2-27.8-9.5-2.6-8.2.6-19.2-4.1-20.8-4.6-1.5-11.1-2-11.1-2l-2.1-2.7Z"/>
      <path class="cls-4" d="M58.1,61.7s-10.1-20.3,4.2-35.4v3.9s14.4-18.5,35.7-8.2l-2.2-2.7s15.4,4.4,16.1,29.4c0,0,8.2-27.9-21.9-37.4-6.8-1.5-17.4,3.9-17.4,3.9l1-6.3s-16.3,4.7-22.5,19.5c-6.2,14.8,6.9,33.4,6.9,33.4Z"/>
      <path class="cls-4" d="M35.1,57.1s4.3-3.1,5.5-8.8c0,0,2.4,5.6,2,8.4,0,0-.5-1.1-1.3-1.5,0,0,0,3.2.2,5.7.2,2.5,4,9.2,10.8,8.3,0,0-4.1-3.1-4.9-8.3-.8-5.2-1.6-11.6-2.9-13.8-1.3-2.1-5.7-4.9-5.7-4.9,0,0-1.5,8.1-2.5,10.1-1,2.1-1.3,4.7-1.3,4.7Z"/>
      <path class="cls-4" d="M19.2,81.1c6.3.6,10.8,1.7,13.5,8.6,2.7,6.9,1.7,9.6,7.5,12,0,0-3.1.9-4.3,0,0,0,4.8,12.9,23.7,11.1,0,0-12.3,5.8-23-1.8-10.7-7.6-5.6-18.8-9.3-23-3.7-4.2-8-6.9-8-6.9Z"/>
      <path class="cls-1" d="M106,17.4c-10.5-10.2-22.6-8.4-29.4-6.3l2.5-5.9-3.9,1c-18,4.7-29.5,20.7-27.9,38.8.6,6.9,5.1,14.3,10.2,22.2-.4-.2-.8-.4-1.3-.6-8-3.5-8-6.1-8-8.4v-.2c1.4-17-10.7-18.3-10.8-18.3l-2.3-.2v2.3c.1,2.2,0,5.1-.3,5.8-.3.9-.7,1.7-1,2.4-.8-6.8-8.5-10.1-8.5-10.1.5,3.1-.2,4.1-1.1,7.4-.6,2.5.7,6.4-.8,7h0c-8,2.4-12.3,7.7-14.6,12.2-2.7,5.4-3.4,12.3-2.1,14,2.8,3.6,6.8,4,10.3,4.4,3.1.3,5.9.6,7.7,3,2,2.7,1.7,6.2,1.4,9.8-.2,1.8-.3,3.6-.1,5.4-.5,13.3,7.1,24.5,20.4,30,5.1,2.1,10.5,3.1,15.8,3.1,10.8,0,21.2-4.2,28.1-11.9,8.4-9.3,12.3-21.1,11.4-34.1-.7-9.8-5.8-18.6-5.8-18.6l-2.6,5.2s0,0,0-.1c-5-6.5-14.3-18.6-8.3-25.9,2.8-3.4,6.5-4.6,10.3-3.1,4,1.6,8.2,6.5,7.8,13.6l.2,4.2s10.5-6.6,11.9-22.6c.9-10-2.5-19.1-9.1-25.5ZM17.5,80.9c-1.7-.2-3.2-.3-4.5-.8,1.1-.9,1.6-2.4,1.6-2.4-1.6-.9-3.1-.5-4.3,0,0-2.2.6-8.1,4.7-13.2,4.1-5.1,10.5-7.7,18.8-7.6h1.3s.6-1.1.6-1.1c0-.1,1.5-3,3.1-6.9.4-1.1.6-3,.7-4.7,2.4,1.2,5.7,4.6,4.9,13.3h0c0,.1,0,.5,0,.5,0,3.8.9,7.9,10.4,12.1,3.6,1.6,7.7,3.4,12.1,12.2,0,.2.2.3.3.5.2.5.5.9.7,1.4,3.3,7.2,4.6,14,.7,19.9-3.7,5.7-9.5,8.9-16.3,9-5.7.1-11.5-1.9-16.3-5.4-3.6-2.9-5.4-7-5.5-11.8.2-3.5.1-7.3-2.3-10.7-2.9-3.9-6.9-4.3-10.5-4.6ZM111.1,42.6c-.2,2.9-.8,5.5-1.5,7.9,0-5.4-1.4-12.9-8.6-18.4-11.2-8.4-23.1-.5-23.1-.5,13.2-3.1,30.4,1.7,28.5,23.4-1.5-5.1-5-9.3-9.6-11.1-5.4-2.1-11-.5-14.9,4.3-8,9.8,2.6,23.6,8.3,31,1.2,1.6,2.2,2.9,2.7,3.7l2.5,3.9,1.2-4.4c2.1,9.2,3.3,25.5-9.1,39.3-10.8,12-28,12.4-39.4,7.8-9.8-4-16.1-11.5-17.6-20.6,5.9,5.6,14,8.8,21.9,8.7,8.2-.2,15.2-4,19.6-10.9,4.8-7.3,3.4-15.4-.3-23.5h0c-2.9-8.2-13.3-26.4-7.6-40.5,0,0-6.5,7.4-3.2,22.1-4.7-7.3-8.8-14.2-9.3-20.1-1.3-14.9,6.7-27.6,20.4-33.1l-4.2,8.5,5.8-3.3c.2,0,16.5-9.3,29.7,3.5,7.8,7.5,8.3,17.2,7.9,22.3Z"/>
      <path class="cls-1" d="M19.9,67.8c6.2,3,8.3-2.2,8.3-2.2-5.9-4.1-8.3,2.2-8.3,2.2Z"/>
    </g>
  </g>
</svg>